<?xml version="1.0" encoding="UTF-8" standalone="no"?>
<!-- Created with Inkscape (http://www.inkscape.org/) -->

<svg
   xmlns:dc="http://purl.org/dc/elements/1.1/"
   xmlns:cc="http://creativecommons.org/ns#"
   xmlns:rdf="http://www.w3.org/1999/02/22-rdf-syntax-ns#"
   xmlns:svg="http://www.w3.org/2000/svg"
   xmlns="http://www.w3.org/2000/svg"
   xmlns:sodipodi="http://sodipodi.sourceforge.net/DTD/sodipodi-0.dtd"
   xmlns:inkscape="http://www.inkscape.org/namespaces/inkscape"
   width="210mm"
   height="297mm"
   viewBox="0 0 744.09448819 1052.3622047"
   id="svg2"
   version="1.1"
   inkscape:version="0.91 r13725"
   sodipodi:docname="egcas.svg"
   inkscape:export-filename="/home/jo/localgit/egcas-meta/pics/egcas.png"
   inkscape:export-xdpi="2.4083269"
   inkscape:export-ydpi="2.4083269">
  <defs
     id="defs4" />
  <sodipodi:namedview
     id="base"
     pagecolor="#ffffff"
     bordercolor="#666666"
     borderopacity="1.0"
     inkscape:pageopacity="0.0"
     inkscape:pageshadow="2"
     inkscape:zoom="0.7"
     inkscape:cx="-571.89569"
     inkscape:cy="517.40414"
     inkscape:document-units="px"
     inkscape:current-layer="layer1"
     showgrid="false"
     inkscape:snap-text-baseline="true"
     inkscape:window-width="1920"
     inkscape:window-height="1021"
     inkscape:window-x="0"
     inkscape:window-y="0"
     inkscape:window-maximized="1" />
  <metadata
     id="metadata7">
    <rdf:RDF>
      <cc:Work
         rdf:about="">
        <dc:format>image/svg+xml</dc:format>
        <dc:type
           rdf:resource="http://purl.org/dc/dcmitype/StillImage" />
        <dc:title />
      </cc:Work>
    </rdf:RDF>
  </metadata>
  <g
     inkscape:label="Ebene 1"
     inkscape:groupmode="layer"
     id="layer1">
    <rect
       style="opacity:1;fill:#f5ff00;fill-opacity:1;stroke:none;stroke-width:2.07450533;stroke-miterlimit:4;stroke-dasharray:none;stroke-opacity:1"
       id="rect4144"
       width="597.92548"
       height="597.92548"
       x="21.065825"
       y="327.65659" />
    <g
       transform="matrix(0.96719956,0,0,0.8164112,-51.727573,248.77613)"
       style="font-style:normal;font-variant:normal;font-weight:normal;font-stretch:normal;font-size:314.33898926px;line-height:125%;font-family:'DejaVu Sans';-inkscape-font-specification:'DejaVu Sans, Normal';text-align:start;letter-spacing:0px;word-spacing:0px;writing-mode:lr-tb;text-anchor:start;fill:#000000;fill-opacity:1;stroke:none;stroke-width:1px;stroke-linecap:butt;stroke-linejoin:miter;stroke-opacity:1"
       id="text4136">
      <path
         d="m 137.94192,245.63853 q 1.0744,11.35795 10.74401,29.77625 11.35795,21.33453 32.84597,33.30643 21.02756,11.66492 43.74346,11.8184 l 106.97963,0 0,24.40425 -106.97963,0 q -29.46928,0 -56.78976,-15.1951 -27.16699,-15.19509 -41.74814,-42.2086 -14.58116,-27.01351 -14.58116,-55.71536 0,-28.39488 14.58116,-55.40838 14.58115,-27.01351 41.74814,-42.36209 27.32048,-15.34859 56.78976,-15.34859 l 106.97963,0 0,24.40425 -106.97963,0 q -22.7159,0.15349 -43.74346,11.97189 -21.33453,12.12539 -32.84597,33.30643 -9.82309,18.4183 -11.20447,32.69248 l 194.77353,0 0,24.55774 -194.31307,0 z"
         style="fill:#008000;stroke:#008000;stroke-opacity:1;stroke-width:13.04167702;stroke-miterlimit:4;stroke-dasharray:none"
         id="path4147"
         inkscape:connector-curvature="0" />
      <path
         d="m 482.33589,420.45889 c 43.06444,0 70.72627,-25.46146 80.15644,-70.72627 l 35.52031,-178.23021 -22.31807,0 -6.91546,21.06072 -0.94302,0 c -8.17281,-15.08828 -23.26108,-25.14712 -41.1784,-25.14712 -42.75011,0 -88.6436,47.15084 -88.6436,105.6179 0,28.29051 13.83092,46.52217 34.26295,52.49461 -25.46146,11.94488 -45.26481,29.54786 -45.26481,53.12329 0,23.26108 20.43203,41.80708 55.32366,41.80708 z m 0.94302,-22.6324 c -17.28865,0 -30.49089,-9.74451 -30.49089,-24.20411 0,-16.03129 16.97431,-33.31993 47.46519,-44.63613 21.68939,-7.85848 32.69126,-14.77394 45.89349,-27.3475 l 1.25736,0 -10.68753,46.20784 c -7.54413,30.49088 -24.83278,49.9799 -53.43762,49.9799 z m 14.14525,-92.10133 c -18.546,0 -30.80522,-12.57356 -30.80522,-36.77766 0,-40.23539 31.4339,-78.89909 61.2961,-78.89909 12.8879,0 24.2041,7.2298 34.26295,25.14712 l -12.57356,60.98177 c -16.03129,19.48901 -36.14898,29.54786 -52.18027,29.54786 z"
         style="fill:#0077ff;fill-opacity:1;stroke:#0077ff;stroke-opacity:1;stroke-width:10.22830291;stroke-miterlimit:4;stroke-dasharray:none"
         id="path4149"
         inkscape:connector-curvature="0" />
      <path
         d="m 287.7441,528.64427 0,18.11133 q -13.66024,-9.97658 -31.4646,-16.88344 -17.80436,-6.90686 -40.98072,-6.90686 -25.01819,0 -43.58998,7.98126 l 0,189.55501 q 18.57179,7.98126 43.58998,7.98126 23.17636,0 40.98072,-6.90686 17.80436,-6.90687 31.4646,-17.03693 l 0,17.95784 q -16.2695,11.05098 -34.53432,16.57647 -18.11133,5.52549 -38.37146,5.52549 -52.03169,0 -81.96143,-31.77157 -29.92974,-31.92505 -29.92974,-87.02646 0,-55.2549 29.92974,-87.02647 29.92974,-31.92506 81.96143,-31.92506 20.56711,0 38.67843,5.52549 18.26482,5.37201 34.22735,16.2695 z m -132.15131,182.64815 0,-171.13671 q -5.372,4.14412 -10.13006,9.20915 -24.09728,26.39956 -24.09728,76.43595 0,49.88289 24.09728,76.28246 4.75806,5.06503 10.13006,9.20915 z"
         style="fill:#800000;stroke:#800000;stroke-opacity:1;stroke-width:9.10295327;stroke-miterlimit:4;stroke-dasharray:none"
         id="path4151"
         inkscape:connector-curvature="0" />
      <path
         d="m 340.23625,740.14775 -32.69248,0 87.48693,-229.15435 35.14825,0 87.33344,229.15435 -32.23202,0 -72.75229,-198.61067 -72.29183,198.61067 z"
         style="fill:#000080;stroke:#000080;stroke-opacity:1;stroke-width:9.21548823;stroke-miterlimit:4;stroke-dasharray:none"
         id="path4153"
         inkscape:connector-curvature="0" />
      <path
         d="m 594.10181,548.29046 q 1.22789,-25.63213 13.66024,-35.7622 12.43235,-10.28355 23.94379,-10.28355 11.66493,0 21.33453,9.66961 9.66961,9.51612 12.73933,31.00414 l -22.71591,2.30228 q -2.60925,-19.95316 -11.35795,-19.95316 -10.89749,0 -12.12538,26.86003 l -9.97658,208.74073 q -1.22788,25.63213 -13.66024,35.7622 -12.43235,10.28355 -24.09727,10.28355 -11.51144,0 -21.18105,-9.66961 -9.66961,-9.51612 -12.73932,-31.00414 l 22.7159,-2.30228 q 2.60926,19.95316 11.35795,19.95316 10.8975,0 12.12538,-26.86003 l 9.97658,-208.74073 z"
         style="fill:#525252;fill-opacity:1;stroke:#525252;stroke-opacity:1;stroke-width:13.04167702;stroke-miterlimit:4;stroke-dasharray:none"
         id="path4155"
         inkscape:connector-curvature="0" />
    </g>
  </g>
</svg>
